# xmcd
#
# Track frame offsets: 
#        150
#        15451
#        41304
#        62079
#        84663
#        102756
#        119696
#        140375
#        155011
#        173157
#        190556
#        207145
#        224546
#        244757
#
# Disc length: 3503 seconds
#
# Revision: 0
# Processed by: cddbd v1.5.2PL0 Copyright (c) Steve Scherf et al.
# Submitted via: ExactAudioCopyFreeDBPlugin 1.0
#
DISCID=bc0dad0e
DTITLE=Colin Banagan - Down The Line
DYEAR=1999
DGENRE=Blues
TTITLE0=Chicago Express
TTITLE1=Bear Trap Blues
TTITLE2=The Fives
TTITLE3=Blues For The Lady
TTITLE4=Pete's Boogie
TTITLE5=Little Joe From Chicago
TTITLE6=Blues In Thirds
TTITLE7=Honky Tonk Train Blues
TTITLE8=Swannee River Boogie
TTITLE9=Detroit Rocks
TTITLE10=Tell That Story
TTITLE11=Drivin' The Boogie
TTITLE12=Barrelhouse Boogie
TTITLE13=C.B's Boogie
EXTD=
EXTT0=
EXTT1=
EXTT2=
EXTT3=
EXTT4=
EXTT5=
EXTT6=
EXTT7=
EXTT8=
EXTT9=
EXTT10=
EXTT11=
EXTT12=
EXTT13=
PLAYORDER=
